<?xml version="1.0" encoding="UTF-8" standalone="no"?>
<svg
   xmlns:dc="http://purl.org/dc/elements/1.1/"
   xmlns:cc="http://creativecommons.org/ns#"
   xmlns:rdf="http://www.w3.org/1999/02/22-rdf-syntax-ns#"
   xmlns:svg="http://www.w3.org/2000/svg"
   xmlns="http://www.w3.org/2000/svg"
   xmlns:sodipodi="http://sodipodi.sourceforge.net/DTD/sodipodi-0.dtd"
   xmlns:inkscape="http://www.inkscape.org/namespaces/inkscape"
   id="line"
   height="512"
   viewBox="0 0 64 64"
   width="512"
   version="1.1"
   sodipodi:docname="certificate.svg"
   inkscape:version="1.0.1 (3bc2e813f5, 2020-09-07)">
  <metadata
     id="metadata29">
    <rdf:RDF>
      <cc:Work
         rdf:about="">
        <dc:format>image/svg+xml</dc:format>
        <dc:type
           rdf:resource="http://purl.org/dc/dcmitype/StillImage" />
      </cc:Work>
    </rdf:RDF>
  </metadata>
  <defs
     id="defs27" />
  <sodipodi:namedview
     pagecolor="#ffffff"
     bordercolor="#666666"
     borderopacity="1"
     objecttolerance="10"
     gridtolerance="10"
     guidetolerance="10"
     inkscape:pageopacity="0"
     inkscape:pageshadow="2"
     inkscape:window-width="1920"
     inkscape:window-height="1021"
     id="namedview25"
     showgrid="false"
     inkscape:zoom="1.5273438"
     inkscape:cx="256"
     inkscape:cy="256"
     inkscape:window-x="0"
     inkscape:window-y="28"
     inkscape:window-maximized="1"
     inkscape:current-layer="line" />
  <g
     fill="#c4a2fc"
     id="g12"
     style="fill:#66cdaa">
    <circle
       cx="43.996"
       cy="31.999"
       r="10.5"
       id="circle2"
       style="fill:#66cdaa" />
    <path
       d="m62.36 24.392a8.132 8.132 0 0 0 -5.859-4.9 8.24 8.24 0 0 0 -12.501-5.177 8.241 8.241 0 0 0 -12.51 5.179 8.24 8.24 0 0 0 -5.179 12.506 8.24 8.24 0 0 0 5.179 12.5 8.237 8.237 0 0 0 12.51 5.184 8.114 8.114 0 0 0 4.424 1.316 8.241 8.241 0 0 0 8.076-6.5 8.24 8.24 0 0 0 5.18-12.5 8.13 8.13 0 0 0 .68-7.608zm-18.36 20.108a12.5 12.5 0 1 1 12.5-12.5 12.514 12.514 0 0 1 -12.5 12.5z"
       id="path4"
       style="fill:#66cdaa" />
    <path
       d="m34 51.352v10.648a1 1 0 0 0 1.406.914l3.594-1.598v-8.341a10.116 10.116 0 0 1 -5-1.623z"
       id="path6"
       style="fill:#66cdaa" />
    <path
       d="m49 52.975v8.341l3.593 1.6a1 1 0 0 0 1.407-.916v-10.648a10.116 10.116 0 0 1 -5 1.623z"
       id="path8"
       style="fill:#66cdaa" />
    <path
       d="m41 52.889v7.538l3-1.333 3 1.333v-7.538a10.066 10.066 0 0 1 -3-.912 10.084 10.084 0 0 1 -3 .912z"
       id="path10"
       style="fill:#66cdaa" />
  </g>
  <path
     d="m48 1h-44a3 3 0 0 0 -3 3v32a3 3 0 0 0 3 3h44a3 3 0 0 0 3-3v-32a3 3 0 0 0 -3-3zm1 35a1 1 0 0 1 -1 1h-44a1 1 0 0 1 -1-1v-32a1 1 0 0 1 1-1h44a1 1 0 0 1 1 1z"
     fill="#151a6a"
     id="path14"
     style="fill:#006400" />
  <path
     d="m46 10a4 4 0 0 1 -4-4 1 1 0 0 0 -1-1h-30a1 1 0 0 0 -1 1 4 4 0 0 1 -4 4 1 1 0 0 0 -1 1v18a1 1 0 0 0 1 1 4 4 0 0 1 4 4 1 1 0 0 0 1 1h30a1 1 0 0 0 1-1 4 4 0 0 1 4-4 1 1 0 0 0 1-1v-18a1 1 0 0 0 -1-1zm-1 18.083a6.017 6.017 0 0 0 -4.917 4.917h-28.166a6.017 6.017 0 0 0 -4.917-4.917v-16.166a6.017 6.017 0 0 0 4.917-4.917h28.166a6.017 6.017 0 0 0 4.917 4.917z"
     fill="#151a6a"
     id="path16"
     style="fill:#006400" />
  <path
     d="m18 15h16a1 1 0 0 0 0-2h-16a1 1 0 0 0 0 2z"
     fill="#151a6a"
     id="path18"
     style="fill:#006400" />
  <path
     d="m41 19h-30a1 1 0 0 0 0 2h30a1 1 0 0 0 0-2z"
     fill="#151a6a"
     id="path20"
     style="fill:#006400" />
  <path
     d="m29.417 26.743a2.549 2.549 0 0 0 -2.834 0l-1.078.718a.556.556 0 0 1 -.7-.069 2.558 2.558 0 0 0 -3.613 0l-.9.9a1 1 0 0 0 1.416 1.414l.9-.9a.555.555 0 0 1 .784 0 2.559 2.559 0 0 0 3.222.319l1.079-.718a.551.551 0 0 1 .615 0l2.137 1.425a1 1 0 1 0 1.11-1.664z"
     fill="#151a6a"
     id="path22"
     style="fill:#006400" />
</svg>
