<?xml version="1.0" encoding="UTF-8" standalone="no"?>
<svg
   xmlns:dc="http://purl.org/dc/elements/1.1/"
   xmlns:cc="http://creativecommons.org/ns#"
   xmlns:rdf="http://www.w3.org/1999/02/22-rdf-syntax-ns#"
   xmlns:svg="http://www.w3.org/2000/svg"
   xmlns="http://www.w3.org/2000/svg"
   xmlns:sodipodi="http://sodipodi.sourceforge.net/DTD/sodipodi-0.dtd"
   xmlns:inkscape="http://www.inkscape.org/namespaces/inkscape"
   id="Line"
   height="512"
   viewBox="0 0 64 64"
   width="512"
   version="1.1"
   sodipodi:docname="coins.svg"
   inkscape:version="1.0.1 (3bc2e813f5, 2020-09-07)">
  <metadata
     id="metadata23">
    <rdf:RDF>
      <cc:Work
         rdf:about="">
        <dc:format>image/svg+xml</dc:format>
        <dc:type
           rdf:resource="http://purl.org/dc/dcmitype/StillImage" />
      </cc:Work>
    </rdf:RDF>
  </metadata>
  <defs
     id="defs21" />
  <sodipodi:namedview
     pagecolor="#ffffff"
     bordercolor="#666666"
     borderopacity="1"
     objecttolerance="10"
     gridtolerance="10"
     guidetolerance="10"
     inkscape:pageopacity="0"
     inkscape:pageshadow="2"
     inkscape:window-width="1920"
     inkscape:window-height="1021"
     id="namedview19"
     showgrid="false"
     inkscape:zoom="1.5273438"
     inkscape:cx="256"
     inkscape:cy="256"
     inkscape:window-x="0"
     inkscape:window-y="28"
     inkscape:window-maximized="1"
     inkscape:current-layer="Line" />
  <g
     fill="#c4a2fc"
     id="g10"
     style="fill:#66cdaa">
    <path
       d="m41.372 41.122a2.1 2.1 0 0 0 -1.249 1.564 1.594 1.594 0 0 0 .435 1.568 6.01 6.01 0 0 0 .814.52z"
       id="path2"
       style="fill:#66cdaa" />
    <path
       d="m49.96 25 1.554-3.106a2 2 0 0 0 -1.79-2.894h-14.763a2 2 0 0 0 -1.789 2.9l1.553 3.1z"
       id="path4"
       style="fill:#66cdaa" />
    <path
       d="m23.01 52.164a15.827 15.827 0 0 0 15.035 10.836h8.595a15.849 15.849 0 0 0 12.176-25.995l-8.339-10.005h-3.854l2.689 10.757a1 1 0 1 1 -1.939.486l-2.811-11.243h-4.439l-2.811 11.243a1 1 0 1 1 -1.939-.486l2.689-10.757h-3.854l-8.338 10.005a15.752 15.752 0 0 0 -2.86 15.159zm14.825.247a1 1 0 0 1 1.384-.289 4.1 4.1 0 0 0 2.153.81v-5.932a9.64 9.64 0 0 1 -2.048-1.171 3.566 3.566 0 0 1 -1.167-3.512 4.047 4.047 0 0 1 2.773-3.175c.15-.045.3-.08.442-.112v-1.03a1 1 0 0 1 2 0v.95a5.118 5.118 0 0 1 2.552 1.14 1 1 0 0 1 -1.349 1.476 3.1 3.1 0 0 0 -1.2-.574v4.665c.272.1.556.209.87.32a4.27 4.27 0 0 1 2.941 4.889 4.864 4.864 0 0 1 -3.811 3.989v1.145a1 1 0 0 1 -2 0v-1.068a5.968 5.968 0 0 1 -3.25-1.132 1 1 0 0 1 -.29-1.389z"
       id="path6"
       style="fill:#66cdaa" />
    <path
       d="m45.212 50.534c.211-1.254-.349-2.212-1.84-2.746v4.982a2.9 2.9 0 0 0 1.84-2.236z"
       id="path8"
       style="fill:#66cdaa" />
  </g>
  <path
     d="m22 9a12.514 12.514 0 0 1 12.5 12.5 1 1 0 0 0 2 0 14.517 14.517 0 0 0 -14.5-14.5 1 1 0 0 0 0 2z"
     fill="#151a6a"
     id="path12"
     style="fill:#006400" />
  <path
     d="m23 35a1 1 0 0 0 -1-1 12.514 12.514 0 0 1 -12.5-12.5 1 1 0 0 0 -2 0 14.517 14.517 0 0 0 14.5 14.5 1 1 0 0 0 1-1z"
     fill="#151a6a"
     id="path14"
     style="fill:#006400" />
  <path
     d="m42.184 18.033a20.489 20.489 0 1 0 -23.651 23.651 17.5 17.5 0 1 0 23.651-23.651zm-38.684 3.467a18.5 18.5 0 1 1 18.5 18.5 18.521 18.521 0 0 1 -18.5-18.5zm30.5 27.5a15.447 15.447 0 0 1 -12.988-7.05c.33.016.655.05.988.05a20.483 20.483 0 0 0 3.862-.377l.006.009a11.428 11.428 0 0 0 8.132 3.368 1 1 0 0 0 0-2 9.424 9.424 0 0 1 -5.78-1.971 20.584 20.584 0 0 0 13.309-13.309 9.422 9.422 0 0 1 1.971 5.78 1 1 0 0 0 2 0 11.425 11.425 0 0 0 -3.368-8.132l-.009-.006a20.483 20.483 0 0 0 .377-3.862c0-.333-.034-.658-.05-.988a15.5 15.5 0 0 1 -8.45 28.488z"
     fill="#151a6a"
     id="path16"
     style="fill:#006400" />
</svg>
