<?xml version="1.0" encoding="UTF-8" standalone="no"?>
<svg
   xmlns:dc="http://purl.org/dc/elements/1.1/"
   xmlns:cc="http://creativecommons.org/ns#"
   xmlns:rdf="http://www.w3.org/1999/02/22-rdf-syntax-ns#"
   xmlns:svg="http://www.w3.org/2000/svg"
   xmlns="http://www.w3.org/2000/svg"
   xmlns:sodipodi="http://sodipodi.sourceforge.net/DTD/sodipodi-0.dtd"
   xmlns:inkscape="http://www.inkscape.org/namespaces/inkscape"
   id="line"
   height="512"
   viewBox="0 0 64 64"
   width="512"
   version="1.1"
   sodipodi:docname="computer.svg"
   inkscape:version="1.0.1 (3bc2e813f5, 2020-09-07)">
  <metadata
     id="metadata21">
    <rdf:RDF>
      <cc:Work
         rdf:about="">
        <dc:format>image/svg+xml</dc:format>
        <dc:type
           rdf:resource="http://purl.org/dc/dcmitype/StillImage" />
      </cc:Work>
    </rdf:RDF>
  </metadata>
  <defs
     id="defs19" />
  <sodipodi:namedview
     pagecolor="#ffffff"
     bordercolor="#666666"
     borderopacity="1"
     objecttolerance="10"
     gridtolerance="10"
     guidetolerance="10"
     inkscape:pageopacity="0"
     inkscape:pageshadow="2"
     inkscape:window-width="1920"
     inkscape:window-height="1021"
     id="namedview17"
     showgrid="false"
     inkscape:zoom="1.5273438"
     inkscape:cx="256"
     inkscape:cy="256"
     inkscape:window-x="0"
     inkscape:window-y="28"
     inkscape:window-maximized="1"
     inkscape:current-layer="line" />
  <g
     fill="#c4a2fc"
     id="g8"
     style="fill:#66cdaa">
    <path
       d="m60 16h-44a3 3 0 0 0 -3 3v25l50 .037v-25.037a3 3 0 0 0 -3-3z"
       id="path2"
       style="fill:#66cdaa" />
    <path
       d="m13 51a3 3 0 0 0 3 3h44a3 3 0 0 0 3-3v-4.961l-50-.039zm24-2h2a1 1 0 0 1 0 2h-2a1 1 0 0 1 0-2z"
       id="path4"
       style="fill:#66cdaa" />
    <path
       d="m49 60h-2.219l-.994-3.974-15.572-.011-1 3.985h-2.215a1 1 0 0 0 0 2h22a1 1 0 0 0 0-2z"
       id="path6"
       style="fill:#66cdaa" />
  </g>
  <path
     d="m50.186 38.771-3.186-7.964v-25.807a3 3 0 0 0 -3-3h-36a3 3 0 0 0 -3 3v25.807l-3.186 7.964a11.345 11.345 0 0 0 -.814 4.229v2a3 3 0 0 0 3 3h44a3 3 0 0 0 3-3v-2a11.345 11.345 0 0 0 -.814-4.229zm-43.186-33.771a1 1 0 0 1 1-1h36a1 1 0 0 1 1 1v25h-38zm-3.329 34.515 3.006-7.515h38.646l3.006 7.515a9.373 9.373 0 0 1 .618 2.485h-45.894a9.363 9.363 0 0 1 .618-2.485zm45.329 5.485a1 1 0 0 1 -1 1h-44a1 1 0 0 1 -1-1v-1h46z"
     fill="#151a6a"
     id="path10"
     style="fill:#006400" />
  <path
     d="m42 6h-32a1 1 0 0 0 -1 1v20a1 1 0 0 0 1 1h32a1 1 0 0 0 1-1v-20a1 1 0 0 0 -1-1zm-1 20h-30v-18h30z"
     fill="#151a6a"
     id="path12"
     style="fill:#006400" />
  <path
     d="m30 38h-8a1 1 0 0 0 0 2h8a1 1 0 0 0 0-2z"
     fill="#151a6a"
     id="path14"
     style="fill:#006400" />
</svg>
