<?xml version="1.0" encoding="UTF-8" standalone="no"?>
<svg
   xmlns:dc="http://purl.org/dc/elements/1.1/"
   xmlns:cc="http://creativecommons.org/ns#"
   xmlns:rdf="http://www.w3.org/1999/02/22-rdf-syntax-ns#"
   xmlns:svg="http://www.w3.org/2000/svg"
   xmlns="http://www.w3.org/2000/svg"
   xmlns:sodipodi="http://sodipodi.sourceforge.net/DTD/sodipodi-0.dtd"
   xmlns:inkscape="http://www.inkscape.org/namespaces/inkscape"
   id="line"
   height="512"
   viewBox="0 0 64 64"
   width="512"
   version="1.1"
   sodipodi:docname="ship.svg"
   inkscape:version="1.0.1 (3bc2e813f5, 2020-09-07)">
  <metadata
     id="metadata19">
    <rdf:RDF>
      <cc:Work
         rdf:about="">
        <dc:format>image/svg+xml</dc:format>
        <dc:type
           rdf:resource="http://purl.org/dc/dcmitype/StillImage" />
        <dc:title></dc:title>
      </cc:Work>
    </rdf:RDF>
  </metadata>
  <defs
     id="defs17" />
  <sodipodi:namedview
     pagecolor="#ffffff"
     bordercolor="#666666"
     borderopacity="1"
     objecttolerance="10"
     gridtolerance="10"
     guidetolerance="10"
     inkscape:pageopacity="0"
     inkscape:pageshadow="2"
     inkscape:window-width="1920"
     inkscape:window-height="1021"
     id="namedview15"
     showgrid="false"
     inkscape:zoom="1.5273438"
     inkscape:cx="256"
     inkscape:cy="256"
     inkscape:window-x="0"
     inkscape:window-y="28"
     inkscape:window-maximized="1"
     inkscape:current-layer="line"
     inkscape:document-rotation="0" />
  <g
     fill="#c3a1fb"
     id="g10"
     style="fill:#66cdaa">
    <path
       d="m23.6 44.5c4.281 0 4.761-2 9.6-2 4.786 0 5.287 2 9.6 2 4.264 0 4.785-2 9.6-2 5.451 0 4.969 2.272 10.6 1.973v-6.006c-5.972.289-5.878-1.967-10.6-1.967-4.264 0-4.784 2-9.6 2-4.794 0-5.279-2-9.6-2-4.281 0-4.761 2-9.6 2-5.441 0-4.97-2.27-10.6-1.973v6.006c5.969-.289 5.874 1.967 10.6 1.967z"
       id="path2"
       style="fill:#66cdaa" />
    <path
       d="m23.6 52.5c4.281 0 4.761-2 9.6-2 4.786 0 5.287 2 9.6 2 4.264 0 4.785-2 9.6-2 5.451 0 4.969 2.272 10.6 1.973v-6.006c-5.972.289-5.878-1.967-10.6-1.967-4.264 0-4.784 2-9.6 2-4.794 0-5.279-2-9.6-2-4.281 0-4.761 2-9.6 2-5.441 0-4.97-2.271-10.6-1.974v6.006c5.969-.288 5.874 1.968 10.6 1.968z"
       id="path4"
       style="fill:#66cdaa" />
    <path
       d="m23.6 36.5c4.281 0 4.761-2 9.6-2 4.786 0 5.287 2 9.6 2 4.264 0 4.785-2 9.6-2 5.488 0 4.954 2.271 10.6 1.973v-4.973a1 1 0 0 0 -1-1c-4.264 0-4.785-2-9.6-2-4.8 0-5.282 2-9.6 2-4.254 0-4.769-2-9.6-2-4.8 0-5.28 2-9.6 2-4.262 0-4.782-2-9.6-2a1 1 0 0 0 -1 1v5.031c6.021-.291 5.807 1.969 10.6 1.969z"
       id="path6"
       style="fill:#66cdaa" />
    <path
       d="m52.4 52.5c-4.264 0-4.784 2-9.6 2-4.794 0-5.279-2-9.6-2-4.281 0-4.761 2-9.6 2-5.436 0-4.972-2.27-10.6-1.971v4.971a1 1 0 0 0 1 1c4.254 0 4.769 2 9.6 2 4.8 0 5.28-2 9.6-2 4.261 0 4.782 2 9.6 2 4.8 0 5.283-2 9.6-2 4.265 0 4.785 2 9.6 2a1 1 0 0 0 1-1v-5.035c-5.972.29-5.877-1.965-10.6-1.965z"
       id="path8"
       style="fill:#66cdaa" />
  </g>
  <path
     d="m49.807 47.229a11.6 11.6 0 0 0 -2.262.711l3.425-13.7a1 1 0 0 0 -.97-1.24h-20.5v-3h15.5a1 1 0 0 0 .854-1.521l-16.5-27a1.055 1.055 0 0 0 -.854-.479h-5a1.063 1.063 0 0 0 -.854.479l-16.5 27a1 1 0 0 0 .854 1.521h15.5v3h-20.5a1 1 0 0 0 -.97 1.242l3.687 14.75c-.106 0-.2.008-.314.008a11.3 11.3 0 0 1 -2.208-.193 1 1 0 0 0 -.39 1.961 13.234 13.234 0 0 0 2.595.232c4.786 0 5.287-2 9.6-2 4.254 0 4.769 2 9.6 2 4.8 0 5.28-2 9.6-2 4.28 0 4.761 2 9.6 2 4.083 0 4.948-1.325 7.4-1.808a1 1 0 0 0 -.386-1.963zm-20.307-41.675 13.717 22.446h-13.717zm-5-2.554h3v30h-3zm-15.717 25 13.717-22.446v22.446zm-4.503 11-1-4h45.439l-1 4zm41 9.741a10.675 10.675 0 0 1 -2.487.259c-4.254 0-4.769-2-9.6-2-4.8 0-5.28 2-9.6 2-4.28 0-4.761-2-9.6-2-3.944 0-4.925 1.274-7.276 1.778l-1.937-7.778h42.439z"
     fill="#151a6a"
     id="path12"
     style="fill:#006400" />
</svg>
