<?xml version="1.0" encoding="UTF-8" standalone="no"?>
<svg
   xmlns:dc="http://purl.org/dc/elements/1.1/"
   xmlns:cc="http://creativecommons.org/ns#"
   xmlns:rdf="http://www.w3.org/1999/02/22-rdf-syntax-ns#"
   xmlns:svg="http://www.w3.org/2000/svg"
   xmlns="http://www.w3.org/2000/svg"
   xmlns:sodipodi="http://sodipodi.sourceforge.net/DTD/sodipodi-0.dtd"
   xmlns:inkscape="http://www.inkscape.org/namespaces/inkscape"
   id="Line"
   height="512"
   viewBox="0 0 64 64"
   width="512"
   version="1.1"
   sodipodi:docname="supporting.svg"
   inkscape:version="1.0.1 (3bc2e813f5, 2020-09-07)">
  <metadata
     id="metadata19">
    <rdf:RDF>
      <cc:Work
         rdf:about="">
        <dc:format>image/svg+xml</dc:format>
        <dc:type
           rdf:resource="http://purl.org/dc/dcmitype/StillImage" />
      </cc:Work>
    </rdf:RDF>
  </metadata>
  <defs
     id="defs17" />
  <sodipodi:namedview
     pagecolor="#ffffff"
     bordercolor="#666666"
     borderopacity="1"
     objecttolerance="10"
     gridtolerance="10"
     guidetolerance="10"
     inkscape:pageopacity="0"
     inkscape:pageshadow="2"
     inkscape:window-width="1920"
     inkscape:window-height="1021"
     id="namedview15"
     showgrid="false"
     inkscape:zoom="1.5273438"
     inkscape:cx="256"
     inkscape:cy="256"
     inkscape:window-x="0"
     inkscape:window-y="28"
     inkscape:window-maximized="1"
     inkscape:current-layer="Line" />
  <g
     fill="#c4a2fc"
     id="g10"
     style="fill:#66cdaa">
    <path
       d="m43 17.835a1 1 0 0 0 -1-1h-14a3 3 0 0 0 -3 3v7.7c0 1.14.057 2.272.159 3.395a1 1 0 0 0 1 .905h16.841z"
       id="path2"
       style="fill:#66cdaa" />
    <path
       d="m62.841 30.93c.1-1.123.159-2.255.159-3.395v-7.7a3 3 0 0 0 -3-3h-14a1 1 0 0 0 -1 1v14h16.841a1 1 0 0 0 1-.905z"
       id="path4"
       style="fill:#66cdaa" />
    <path
       d="m45 33.835v25.738a.427.427 0 0 0 .663.355 38.821 38.821 0 0 0 16.6-24.91 1 1 0 0 0 -.989-1.183z"
       id="path6"
       style="fill:#66cdaa" />
    <path
       d="m25.739 35.018a38.824 38.824 0 0 0 16.6 24.91.426.426 0 0 0 .661-.355v-25.738h-16.272a1 1 0 0 0 -.989 1.183z"
       id="path8"
       style="fill:#66cdaa" />
  </g>
  <path
     d="m45.5 34h-.5v-11a7.007 7.007 0 0 0 -3.653-6.146 5.5 5.5 0 1 0 -6.694 0 7.032 7.032 0 0 0 -1.86 1.485 7.026 7.026 0 0 0 -3.446-4.485 5.5 5.5 0 1 0 -6.694 0 7 7 0 0 0 -3.653 6.146v1.111a7.029 7.029 0 0 0 -1.653-1.257 5.5 5.5 0 1 0 -6.694 0 7.013 7.013 0 0 0 -3.573 5.146h-5.08a1 1 0 0 0 0 2h24a2 2 0 0 1 0 4h-12a1 1 0 0 0 0 2h8.764l5.789 2.9a1 1 0 0 0 .447.1h16.5a3.5 3.5 0 0 1 0 7h-19.264l-11.789-5.9a1 1 0 0 0 -.447-.1h-12a1 1 0 0 0 0 2h11.764l11.789 5.9a1 1 0 0 0 .447.1h19.5a5.5 5.5 0 0 0 0-11zm-11-21.5a3.5 3.5 0 1 1 3.5 3.5 3.5 3.5 0 0 1 -3.5-3.5zm3.5 5.5a5.006 5.006 0 0 1 5 5v11h-10v-11a5.006 5.006 0 0 1 5-5zm-15.5-8.5a3.5 3.5 0 1 1 3.5 3.5 3.5 3.5 0 0 1 -3.5-3.5zm-12 6a3.5 3.5 0 1 1 3.5 3.5 3.5 3.5 0 0 1 -3.5-3.5zm3.5 5.5a5.009 5.009 0 0 1 4.9 4h-9.8a5.009 5.009 0 0 1 4.9-4zm12.97 11.867a3.992 3.992 0 0 0 -.97-7.867h-5v-5a5 5 0 0 1 10 0v14h-1.764z"
     fill="#151a6a"
     id="path12"
     style="fill:#006400" />
</svg>
