<svg xmlns:dc="http://purl.org/dc/elements/1.1/" xmlns:cc="http://creativecommons.org/ns#" xmlns:rdf="http://www.w3.org/1999/02/22-rdf-syntax-ns#" xmlns:svg="http://www.w3.org/2000/svg" xmlns="http://www.w3.org/2000/svg" xmlns:sodipodi="http://sodipodi.sourceforge.net/DTD/sodipodi-0.dtd" xmlns:inkscape="http://www.inkscape.org/namespaces/inkscape" version="1.1" id="svg2" xml:space="preserve" width="530.8631" height="305.46878" viewBox="0 0 530.8631 305.46878" sodipodi:docname="404-error.zip" inkscape:version="1.0.1 (3bc2e813f5, 2020-09-07)"><metadata id="metadata8"><rdf:RDF><cc:Work rdf:about=""><dc:format>image/svg+xml</dc:format><dc:type rdf:resource="http://purl.org/dc/dcmitype/StillImage"/><dc:title/></cc:Work></rdf:RDF></metadata><defs id="defs6"><clipPath clipPathUnits="userSpaceOnUse" id="clipPath24"><path d="M 0,500 H 500 V 0 H 0 Z" id="path22"/></clipPath><clipPath clipPathUnits="userSpaceOnUse" id="clipPath228"><path d="M 0,500 H 500 V 0 H 0 Z" id="path226"/></clipPath></defs><sodipodi:namedview pagecolor="#ffffff" bordercolor="#666666" borderopacity="1" objecttolerance="10" gridtolerance="10" guidetolerance="10" inkscape:pageopacity="0" inkscape:pageshadow="2" inkscape:window-width="1920" inkscape:window-height="1021" id="namedview4" showgrid="false" inkscape:zoom="1.173" inkscape:cx="294.29731" inkscape:cy="189.03167" inkscape:window-x="0" inkscape:window-y="28" inkscape:window-maximized="1" inkscape:current-layer="g10"/><g id="g10" inkscape:groupmode="layer" inkscape:label="220876-P1KQR9-972" transform="matrix(1.3333333,0,0,-1.3333333,-39.036031,522.365)"><g id="g18" transform="matrix(0.93049116,0,0,0.98213105,-5.8710242,-11.860456)"><g id="g20" clip-path="url(#clipPath24)"><g id="g26" transform="translate(96.5258,340.4319)"><path d="m 0,0 c -17.628,-5.689 -38.044,-14.549 -41.311,-32.781 -2.128,-11.879 4.772,-24.313 15.163,-30.449 5.073,-2.997 11.299,-5.105 13.953,-10.365 4.123,-8.173 -3.286,-17.544 -11.109,-22.297 -7.823,-4.753 -17.366,-8.523 -20.927,-16.955 -2.348,-5.558 -1.428,-12.031 0.896,-17.599 8.522,-20.418 33.37,-29.36 55.468,-28.267 22.098,1.091 43.057,9.701 64.734,14.133 74.439,15.221 152.487,-19.327 226.798,-3.495 11.564,2.464 23.212,6.32 32.143,14.067 10.067,8.732 15.783,21.907 16.645,35.206 0.823,12.687 -3.675,26.973 -15.031,32.69 -6.636,3.341 -14.567,3.205 -21.771,1.387 -4.6,-1.16 -9.121,-2.978 -13.866,-3.009 -4.744,-0.03 -9.965,2.346 -11.34,6.887 -1.445,4.776 1.849,9.705 5.627,12.963 7.685,6.626 17.961,9.936 24.94,17.301 6.716,7.087 9.542,17.652 7.263,27.146 -2.279,9.495 -9.594,17.624 -18.796,20.89 -23.451,8.324 -49,-14.37 -72.98,-7.72 -1.781,0.494 -3.654,1.255 -4.591,2.848 -0.915,1.553 -0.705,3.525 -0.18,5.25 2.938,9.656 14.348,15.803 14.847,25.884 0.272,5.48 -2.968,10.607 -7.052,14.272 C 211.461,83.167 170.8,53.215 142.188,43.76 95.138,28.212 47.178,15.226 0,0" style="fill:#4b3e8c;fill-opacity:1;fill-rule:nonzero;stroke:none" id="path28"/></g><g id="g30" transform="translate(210.3017,260.4671)"><path d="m 0,0 c -0.002,0.005 -0.001,0.011 0.004,0.014 l 6.754,3.992 c 0.005,0.003 0.007,0.01 0.005,0.015 0,0 -0.742,2.003 -1.241,3.062 -0.499,1.058 -1.027,2.059 -1.583,2.999 -1.148,1.942 -3.893,5.302 -3.893,5.302 -0.003,0.005 -0.01,0.006 -0.015,0.003 l -6.754,-3.993 c -0.005,-0.002 -0.011,-10e-4 -0.013,0.004 l -8.885,15.03 c -0.003,0.005 -0.009,0.007 -0.014,0.004 0,0 -2.386,-1.095 -3.571,-1.668 -1.184,-0.573 -2.341,-1.193 -3.469,-1.86 -1.067,-0.631 -2.074,-1.289 -3.02,-1.976 -0.949,-0.687 -2.902,-2.157 -2.902,-2.157 -0.004,-0.003 -0.005,-0.01 -0.003,-0.015 l 8.885,-15.03 c 0.003,-0.005 0.001,-0.011 -0.004,-0.014 L -33.15,-4.227 c -0.005,-0.002 -0.01,-10e-4 -0.01,0.005 l -3.861,50.743 c -10e-4,0.005 -0.006,0.01 -0.011,0.01 0,0 -5.028,0.258 -7.392,-0.251 -2.364,-0.51 -6.956,-2.274 -6.956,-2.274 -0.005,-0.002 -0.009,-0.008 -0.009,-0.013 l 5.18,-69.507 c 0.001,-0.005 0.005,-0.012 0.01,-0.015 l 1.607,-0.807 c 0.005,-0.003 0.013,-0.003 0.018,0 l 31.582,18.669 c 0.005,0.002 0.011,0 0.013,-0.004 l 7.773,-13.149 c 0.002,-0.005 0.009,-0.007 0.014,-0.005 0,0 2.386,1.095 3.572,1.668 1.183,0.574 2.34,1.194 3.469,1.86 1.064,0.63 2.072,1.289 3.019,1.976 0.947,0.686 2.901,2.158 2.901,2.158 0.004,0.003 0.005,0.01 0.002,0.015 z" style="fill:#ffffff;fill-opacity:1;fill-rule:nonzero;stroke:none" id="path32"/></g><g id="g34" transform="translate(338.8955,266.2918)"><path d="M 0,0 C -1.06,0.78 -2.148,1.513 -3.265,2.199 -4.321,2.848 -5.374,3.431 -6.422,3.946 -7.473,4.464 -9.686,5.504 -9.686,5.504 -9.691,5.507 -9.697,5.505 -9.7,5.5 l -9.14,-14.875 c -0.003,-0.005 -0.009,-0.006 -0.014,-0.003 l -13.293,8.167 c -0.004,0.003 -0.004,0.007 0,0.01 l 43.064,27.116 c 0.004,0.002 0.006,0.009 0.004,0.014 0,0 -2.121,4.566 -3.675,6.419 C 5.691,34.2 1.985,37.437 1.985,37.437 1.981,37.44 1.974,37.441 1.97,37.438 L -57.069,0.393 c -0.004,-0.003 -0.008,-0.01 -0.008,-0.015 l 0.036,-1.8 c 0,-0.005 0.004,-0.012 0.008,-0.015 l 31.259,-19.206 c 0.004,-0.003 0.005,-0.008 0.003,-0.013 l -7.996,-13.014 c -0.003,-0.005 -0.002,-0.012 0.002,-0.015 0,0 2.084,-1.599 3.143,-2.378 1.06,-0.78 2.149,-1.513 3.266,-2.2 1.054,-0.647 2.106,-1.229 3.157,-1.748 1.049,-0.515 3.262,-1.556 3.262,-1.556 0.006,-0.002 0.012,0 0.015,0.004 l 7.996,13.014 c 0.003,0.005 0.009,0.007 0.013,0.004 l 6.686,-4.108 c 0.004,-0.003 0.011,-0.002 0.015,0.003 0,0 1.425,1.591 2.128,2.527 0.703,0.936 1.341,1.87 1.913,2.8 1.181,1.923 2.869,5.92 2.869,5.92 0.002,0.005 0,0.01 -0.004,0.013 l -6.686,4.109 c -0.004,0.003 -0.006,0.009 -0.003,0.013 l 9.14,14.876 c 0.003,0.004 0.002,0.011 -0.002,0.014 0,0 -2.083,1.599 -3.143,2.378" style="fill:#ffffff;fill-opacity:1;fill-rule:nonzero;stroke:none" id="path36"/></g><g id="g38" transform="translate(284.4687,281.6634)"><path d="m 0,0 c 0,-19.037 -15.432,-34.469 -34.469,-34.469 -19.036,0 -34.469,15.432 -34.469,34.469 0,19.036 15.433,34.469 34.469,34.469 C -15.432,34.469 0,19.036 0,0" style="fill:#b17eff;fill-opacity:1;fill-rule:evenodd;stroke:none" id="path40"/></g><g id="g42" transform="translate(215.8066,285.9544)"><path d="m 0,0 c 10.226,-1.454 27.417,5.849 32.928,6.918 11.203,2.174 22.71,-0.415 34.128,-0.793 -0.79,2.497 -1.861,4.868 -3.169,7.083 -4.199,-0.174 -8.625,0.555 -12.861,0.678 C 42.983,14.12 34.985,12.006 26.953,12.493 23.242,12.718 14.888,15.968 7.291,17.247 3.405,12.398 0.805,6.479 0,0" style="fill:#d3bcff;fill-opacity:1;fill-rule:evenodd;stroke:none" id="path44"/></g><g id="g46" transform="translate(250,316.1321)"><path d="m 0,0 c -3.502,0 -6.881,-0.526 -10.065,-1.498 4.318,-2.465 12.973,-3.349 14.982,-3.618 3.61,-0.484 7.532,-0.657 10.631,1.256 0.043,0.027 0.085,0.058 0.128,0.086 C 10.972,-1.367 5.647,0 0,0" style="fill:#d3bcff;fill-opacity:1;fill-rule:evenodd;stroke:none" id="path48"/></g><g id="g50" transform="translate(284.4565,281.1829)"><path d="m 0,0 c -9.931,2.509 -20.445,2.712 -30.454,0.526 -5.438,-1.187 -10.704,-3.055 -16.109,-4.387 -6.794,-1.676 -13.799,-2.486 -20.796,-2.431 -0.295,10e-4 -0.596,0.011 -0.902,0.025 1.369,-6.894 4.793,-13.046 9.608,-17.794 8.254,2.926 16.184,6.764 23.593,11.431 6.482,4.083 12.969,8.945 20.597,9.643 4.736,0.433 9.391,-0.802 14.08,-1.77 C -0.146,-3.204 -0.022,-1.614 0,0" style="fill:#d3bcff;fill-opacity:1;fill-rule:evenodd;stroke:none" id="path52"/></g><g id="g54" transform="translate(282.6308,270.5608)"><path d="m 0,0 c -4.675,0.692 -13.033,-3.419 -15.079,-5.152 -1.826,-1.548 -3.365,-3.437 -5.338,-4.794 -2.503,-1.723 -5.528,-2.472 -8.47,-3.231 -5.938,-1.532 -11.834,-3.233 -17.676,-5.099 -0.742,-0.237 -1.545,-0.562 -1.908,-1.232 4.744,-2.46 10.127,-3.859 15.84,-3.859 3.998,0 7.833,0.689 11.403,1.941 3.578,5.106 5.714,11.722 11.375,14.122 0.957,0.406 4.319,0.886 7.356,1.673 C -1.503,-3.846 -0.667,-1.962 0,0" style="fill:#d3bcff;fill-opacity:1;fill-rule:evenodd;stroke:none" id="path56"/></g><g id="g58" transform="translate(352.9253,179.1629)"><path d="m 0,0 c -8.562,45.818 -48.758,80.5 -97.06,80.5 -48.302,0 -88.498,-34.682 -97.06,-80.5 z" style="fill:#ffffff;fill-opacity:1;fill-rule:evenodd;stroke:none" id="path60"/></g><g id="g62" transform="translate(273.9594,203.1082)"><path d="m 0,0 c -0.456,-3.461 -5.817,-5.608 -11.975,-4.796 -6.157,0.812 -10.779,4.275 -10.323,7.735 0.456,3.46 5.818,5.608 11.975,4.796 C -4.166,6.923 0.456,3.46 0,0" style="fill:#70caec;fill-opacity:1;fill-rule:evenodd;stroke:none" id="path64"/></g><g id="g66" transform="translate(196.5927,340.4134)"><path d="m 0,0 c 0,-7.042 -5.708,-12.75 -12.75,-12.75 -7.042,0 -12.75,5.708 -12.75,12.75 0,7.042 5.708,12.75 12.75,12.75 C -5.708,12.75 0,7.042 0,0" style="fill:#a2c4ff;fill-opacity:1;fill-rule:evenodd;stroke:none" id="path68"/></g><g id="g70" transform="translate(183.8427,353.1634)"><path d="m 0,0 c -2.267,0 -4.391,-0.598 -6.235,-1.635 0.091,-0.155 0.193,-0.299 0.311,-0.419 1.289,-1.3 4.358,-1.356 6.071,-1.438 C 2.653,-3.611 5.18,-3.28 7.568,-2.506 5.449,-0.938 2.837,0 0,0" style="fill:#64a2f5;fill-opacity:1;fill-rule:evenodd;stroke:none" id="path72"/></g><g id="g74" transform="translate(193.5932,346.3435)"><path d="m 0,0 c 0.421,0.146 0.849,0.3 1.231,0.524 -0.33,0.56 -0.692,1.1 -1.102,1.601 -1.272,-0.57 -2.543,-1.139 -3.815,-1.709 -0.987,-0.442 -1.979,-0.886 -3.025,-1.16 -1.54,-0.404 -3.152,-0.429 -4.744,-0.417 -3.305,0.026 -6.535,0.34 -9.8,0.7 -0.79,-1.66 -1.245,-3.509 -1.245,-5.469 0,-0.927 0.104,-1.83 0.292,-2.7 0.673,0.264 1.264,0.703 1.877,1.091 1.629,1.031 3.468,1.673 5.288,2.306 C -10.029,-3.489 -5.014,-1.745 0,0" style="fill:#64a2f5;fill-opacity:1;fill-rule:evenodd;stroke:none" id="path76"/></g><g id="g78" transform="translate(195.5605,345.4392)"><path d="m 0,0 c -0.987,-0.883 -1.72,-2.054 -2.798,-2.895 -1.134,-0.885 -2.394,-1.61 -3.734,-2.136 -0.945,-0.371 -1.93,-0.647 -2.836,-1.105 -0.337,-0.171 -0.691,-0.406 -0.774,-0.774 -0.147,-0.651 0.619,-1.12 1.269,-1.272 1.291,-0.3 2.635,-0.244 3.959,-0.187 l 4.711,0.204 c 0.28,0.012 0.565,0.035 0.848,0.069 0.244,0.985 0.387,2.01 0.387,3.07 C 1.032,-3.241 0.663,-1.542 0,0" style="fill:#64a2f5;fill-opacity:1;fill-rule:evenodd;stroke:none" id="path80"/></g><g id="g82" transform="translate(184.1767,340.7576)"><path d="m 0,0 c -2.268,-0.455 -4.482,-1.176 -6.583,-2.146 -1.401,-0.647 -2.76,-1.408 -4.236,-1.856 -0.419,-0.127 -1.007,-0.176 -1.665,-0.207 0.753,-2.369 2.176,-4.438 4.05,-5.982 0.131,0.156 0.259,0.315 0.38,0.476 1.907,2.534 3.202,5.728 5.955,7.302 0.501,0.286 1.043,0.513 1.478,0.891 C -0.185,-1.145 0.134,-0.561 0,0" style="fill:#64a2f5;fill-opacity:1;fill-rule:evenodd;stroke:none" id="path84"/></g><g id="g86" transform="translate(195.3574,334.9656)"><path d="m 0,0 c -0.144,0.017 -0.29,0.022 -0.424,0.014 l -8.167,-0.452 c -1.691,-0.094 -3.476,-0.218 -4.878,-1.17 -1.08,-0.735 -1.802,-1.877 -2.492,-2.987 -0.233,-0.375 -0.655,-0.898 -1.045,-1.451 1.57,-0.752 3.314,-1.192 5.16,-1.24 0.334,0.419 0.635,0.869 0.958,1.297 1.822,2.41 4.667,4.019 7.672,4.339 0.796,0.084 1.602,0.086 2.397,0.171 C -0.513,-1.007 -0.243,-0.512 0,0" style="fill:#64a2f5;fill-opacity:1;fill-rule:evenodd;stroke:none" id="path88"/></g><g id="g90" transform="translate(195.5429,335.3504)"><path d="m 0,0 c 0.328,0.756 0.583,1.55 0.76,2.374 -3.282,-1.171 -7.162,-2.207 -11.304,-3.009 -4.197,-0.813 -8.221,-1.302 -11.727,-1.434 0.469,-0.692 1.004,-1.335 1.596,-1.921 3.231,0.204 6.809,0.674 10.511,1.391 C -6.511,-1.891 -3.051,-1.002 0,0" style="fill:#458ee9;fill-opacity:1;fill-rule:evenodd;stroke:none" id="path92"/></g><g id="g94" transform="translate(171.3393,332.2517)"><path d="M 0,0 C -4.569,0 -8.297,0.729 -8.723,2.925 -9.124,4.995 -6.421,7.143 -0.689,9.31 -0.174,9.505 0.404,9.245 0.6,8.728 0.795,8.211 0.534,7.634 0.018,7.439 -5.787,5.245 -6.816,3.596 -6.759,3.305 -6.547,2.211 0.655,0.944 13.66,3.464 c 5.457,1.057 10.486,2.522 14.158,4.127 4.205,1.838 4.891,3.11 4.844,3.35 -0.058,0.303 -1.704,1.483 -8.241,1.294 -0.536,-0.022 -1.012,0.418 -1.028,0.97 -0.017,0.552 0.418,1.013 0.97,1.029 6.393,0.191 9.852,-0.792 10.263,-2.913 C 34.979,9.499 33.014,7.679 28.619,5.759 24.815,4.097 19.638,2.584 14.04,1.5 10.246,0.765 4.682,0 0,0" style="fill:#ffffff;fill-opacity:1;fill-rule:nonzero;stroke:none" id="path96"/></g><g id="g98" transform="translate(390.1797,311.7727)"><path d="m 0,0 c -2.7,-4.988 -8.933,-6.843 -13.921,-4.143 -4.988,2.7 -6.843,8.933 -4.143,13.921 2.7,4.989 8.933,6.843 13.921,4.143 C 0.845,11.221 2.7,4.988 0,0" style="fill:#7192ff;fill-opacity:1;fill-rule:evenodd;stroke:none" id="path100"/></g><g id="g102" transform="translate(386.0366,325.6941)"><path d="m 0,0 c -1.605,0.869 -3.34,1.26 -5.044,1.232 0.006,-0.144 0.022,-0.285 0.06,-0.416 0.414,-1.415 2.567,-2.631 3.75,-3.346 C 0.495,-3.576 2.412,-4.31 4.4,-4.677 3.5,-2.754 2.01,-1.088 0,0" style="fill:#53c4ff;fill-opacity:1;fill-rule:evenodd;stroke:none" id="path104"/></g><g id="g106" transform="translate(390.3291,317.1243)"><path d="M 0,0 C 0.354,-0.058 0.716,-0.113 1.073,-0.101 1.054,0.422 1.004,0.943 0.906,1.456 -0.213,1.54 -1.333,1.624 -2.452,1.708 -3.32,1.773 -4.193,1.839 -5.04,2.046 -6.286,2.351 -7.437,2.951 -8.56,3.57 c -2.331,1.285 -4.499,2.746 -6.674,4.253 -1.196,-0.872 -2.228,-2.008 -2.979,-3.396 -0.356,-0.657 -0.628,-1.336 -0.829,-2.026 0.579,-0.07 1.166,0.015 1.749,0.054 1.549,0.106 3.098,-0.145 4.63,-0.394 C -8.442,1.374 -4.221,0.687 0,0" style="fill:#53c4ff;fill-opacity:1;fill-rule:evenodd;stroke:none" id="path108"/></g><g id="g110" transform="translate(391.3755,315.7293)"><path d="m 0,0 c -1.038,-0.247 -2.005,-0.795 -3.092,-0.978 -1.143,-0.192 -2.314,-0.223 -3.464,-0.081 -0.812,0.1 -1.615,0.282 -2.433,0.304 -0.303,0.008 -0.645,-0.022 -0.845,-0.251 -0.354,-0.405 0.009,-1.031 0.412,-1.388 0.799,-0.708 1.773,-1.183 2.733,-1.65 1.138,-0.555 2.276,-1.108 3.415,-1.663 0.203,-0.098 0.413,-0.191 0.627,-0.275 0.55,0.604 1.045,1.274 1.451,2.025 C -0.511,-2.692 -0.122,-1.347 0,0" style="fill:#53c4ff;fill-opacity:1;fill-rule:evenodd;stroke:none" id="path112"/></g><g id="g114" transform="translate(381.5166,316.7776)"><path d="m 0,0 c -1.781,0.548 -3.626,0.886 -5.486,1.004 -1.241,0.079 -2.495,0.061 -3.713,0.309 -0.345,0.071 -0.78,0.262 -1.259,0.492 -0.375,-1.966 -0.16,-3.978 0.576,-5.79 0.152,0.06 0.304,0.123 0.451,0.191 2.323,1.065 4.465,2.83 7.019,2.89 0.464,0.01 0.935,-0.037 1.389,0.064 C -0.57,-0.74 -0.12,-0.448 0,0" style="fill:#53c4ff;fill-opacity:1;fill-rule:evenodd;stroke:none" id="path116"/></g><g id="g118" transform="translate(387.2158,308.3875)"><path d="m 0,0 c -0.096,0.067 -0.197,0.126 -0.295,0.173 -1.986,0.937 -3.973,1.874 -5.959,2.81 -1.234,0.583 -2.546,1.179 -3.904,1.042 -1.047,-0.106 -1.996,-0.638 -2.91,-1.16 -0.31,-0.176 -0.809,-0.385 -1.298,-0.627 0.824,-1.134 1.891,-2.115 3.181,-2.857 0.397,0.169 0.783,0.372 1.176,0.551 2.215,1.009 4.847,1.058 7.098,0.132 0.596,-0.245 1.168,-0.553 1.764,-0.797 C -0.75,-0.517 -0.368,-0.27 0,0" style="fill:#53c4ff;fill-opacity:1;fill-rule:evenodd;stroke:none" id="path120"/></g><g id="g122" transform="translate(180.1821,220.6824)"><path d="m 0,0 -13.057,-24.77 -3.595,1.896 c -1.923,1.014 -2.66,3.395 -1.646,5.317 l 9.385,17.805 c 1.015,1.924 3.395,2.661 5.319,1.647 z" style="fill:#ffffff;fill-opacity:1;fill-rule:evenodd;stroke:none" id="path124"/></g><g id="g126" transform="translate(343.7944,196.4285)"><path d="m 0,0 -7.788,19.502 3.773,1.507 c 2.019,0.806 4.31,-0.177 5.116,-2.196 L 5.969,6.623 C 6.776,4.604 5.792,2.313 3.773,1.507 Z" style="fill:#ffffff;fill-opacity:1;fill-rule:evenodd;stroke:none" id="path128"/></g><g id="g130" transform="translate(222.8203,251.0799)"><path d="m 0,0 -22.744,-16.332 -2.37,3.301 c -1.268,1.765 -0.865,4.225 0.902,5.494 L -7.864,4.202 c 1.766,1.268 4.225,0.865 5.493,-0.901 z" style="fill:#ffffff;fill-opacity:1;fill-rule:evenodd;stroke:none" id="path132"/></g><g id="g134" transform="translate(325.8706,224.0291)"><path d="m 0,0 -22.335,16.887 2.45,3.241 c 1.311,1.734 3.78,2.077 5.514,0.766 L 1.685,8.756 C 3.418,7.444 3.762,4.976 2.451,3.242 Z" style="fill:#ffffff;fill-opacity:1;fill-rule:evenodd;stroke:none" id="path136"/></g><g id="g138" transform="translate(223.9091,234.2928)"><path d="m 0,0 c 1.75,-3.447 -3.119,-9.434 -10.875,-13.371 -7.756,-3.938 -15.463,-4.336 -17.213,-0.889 -1.75,3.447 3.119,9.435 10.875,13.372 C -9.457,3.05 -1.75,3.447 0,0" style="fill:#70caec;fill-opacity:1;fill-rule:evenodd;stroke:none" id="path140"/></g><g id="g142" transform="translate(207.6963,230.4051)"><path d="M 0,0 C 7.006,3.557 13.955,4.214 16.527,1.77 16.626,2.542 16.533,3.258 16.213,3.888 14.463,7.335 6.756,6.937 -1,3 c -7.756,-3.937 -12.625,-9.925 -10.875,-13.372 0.169,-0.333 0.41,-0.62 0.686,-0.882 C -10.744,-7.804 -6.338,-3.219 0,0" style="fill:#4b3e8c;fill-opacity:1;fill-rule:evenodd;stroke:none" id="path144"/></g><g id="g146" transform="translate(318.7729,222.4256)"><path d="m 0,0 c -1.375,-2.201 -6.505,-1.475 -11.456,1.621 -4.951,3.096 -7.85,7.389 -6.474,9.589 1.376,2.201 6.505,1.476 11.456,-1.62 C -1.522,6.494 1.376,2.2 0,0" style="fill:#70caec;fill-opacity:1;fill-rule:evenodd;stroke:none" id="path148"/></g><g id="g150" transform="translate(310.9209,230.4012)"><path d="m 0,0 c 4.472,-2.797 7.257,-6.564 6.743,-8.89 0.479,0.21 0.858,0.512 1.109,0.914 1.376,2.201 -1.522,6.495 -6.474,9.59 -4.951,3.096 -10.08,3.822 -11.456,1.62 -0.133,-0.213 -0.214,-0.45 -0.269,-0.699 C -8.209,3.475 -4.046,2.529 0,0" style="fill:#4b3e8c;fill-opacity:1;fill-rule:evenodd;stroke:none" id="path152"/></g><g id="g154" transform="translate(263.6367,210.8435)"><path d="m 0,0 c -6.158,0.812 -11.519,-1.336 -11.975,-4.796 -0.033,-0.251 -0.032,-0.502 -0.013,-0.752 1.336,2.793 6.167,4.407 11.634,3.687 5.71,-0.753 10.093,-3.787 10.335,-6.985 0.169,0.353 0.29,0.722 0.342,1.111 C 10.779,-4.275 6.157,-0.812 0,0" style="fill:#4b3e8c;fill-opacity:1;fill-rule:evenodd;stroke:none" id="path156"/></g><g id="g158" transform="translate(113.8652,296.2454)"><path d="m 0,0 c 0,-1.795 -1.455,-3.25 -3.25,-3.25 -1.795,0 -3.25,1.455 -3.25,3.25 0,1.795 1.455,3.25 3.25,3.25 C -1.455,3.25 0,1.795 0,0" style="fill:#70caec;fill-opacity:1;fill-rule:evenodd;stroke:none" id="path160"/></g><g id="g162" transform="translate(299.4897,385.2464)"><path d="m 0,0 c -0.805,0 -1.458,0.653 -1.458,1.458 0,0.805 0.653,1.458 1.458,1.458 0.805,0 1.458,-0.653 1.458,-1.458 C 1.458,0.653 0.805,0 0,0" style="fill:#70caec;fill-opacity:1;fill-rule:evenodd;stroke:none" id="path164"/></g><g id="g166" transform="translate(320.1572,358.2039)"><path d="m 0,0 c -0.805,0 -1.458,0.653 -1.458,1.458 0,0.805 0.653,1.458 1.458,1.458 0.805,0 1.458,-0.653 1.458,-1.458 C 1.458,0.653 0.805,0 0,0" style="fill:#70caec;fill-opacity:1;fill-rule:evenodd;stroke:none" id="path168"/></g><g id="g170" transform="translate(76.6152,310.7464)"><path d="m 0,0 c -0.805,0 -1.458,0.653 -1.458,1.458 0,0.805 0.653,1.458 1.458,1.458 0.805,0 1.458,-0.653 1.458,-1.458 C 1.458,0.653 0.805,0 0,0" style="fill:#70caec;fill-opacity:1;fill-rule:evenodd;stroke:none" id="path172"/></g><g id="g174" transform="translate(285.1191,334.0364)"><path d="m 0,0 c 0,-1.037 -0.84,-1.877 -1.877,-1.877 -1.037,0 -1.877,0.84 -1.877,1.877 0,1.037 0.84,1.877 1.877,1.877 C -0.84,1.877 0,1.037 0,0" style="fill:#ffffff;fill-opacity:1;fill-rule:evenodd;stroke:none" id="path176"/></g><g id="g178" transform="translate(363.9922,247.7859)"><path d="m 0,0 c 0,-1.036 -0.84,-1.877 -1.877,-1.877 -1.037,0 -1.877,0.841 -1.877,1.877 0,1.037 0.84,1.877 1.877,1.877 C -0.84,1.877 0,1.037 0,0" style="fill:#ffffff;fill-opacity:1;fill-rule:evenodd;stroke:none" id="path180"/></g><g id="g182" transform="translate(419.3691,244.6629)"><path d="m 0,0 c 0,-1.036 -0.84,-1.877 -1.877,-1.877 -1.037,0 -1.877,0.841 -1.877,1.877 0,1.037 0.84,1.877 1.877,1.877 C -0.84,1.877 0,1.037 0,0" style="fill:#ffffff;fill-opacity:1;fill-rule:evenodd;stroke:none" id="path184"/></g><g id="g186" transform="translate(123.9922,217.2859)"><path d="m 0,0 c 0,-1.036 -0.84,-1.877 -1.877,-1.877 -1.037,0 -1.877,0.841 -1.877,1.877 0,1.037 0.84,1.877 1.877,1.877 C -0.84,1.877 0,1.037 0,0" style="fill:#ffffff;fill-opacity:1;fill-rule:evenodd;stroke:none" id="path188"/></g><g id="g190" transform="translate(232.3691,353.1634)"><path d="m 0,0 c 0,-1.037 -0.84,-1.877 -1.877,-1.877 -1.037,0 -1.877,0.84 -1.877,1.877 0,1.037 0.84,1.877 1.877,1.877 C -0.84,1.877 0,1.037 0,0" style="fill:#ffffff;fill-opacity:1;fill-rule:evenodd;stroke:none" id="path192"/></g><g id="g194" transform="translate(209.6098,307.5491)"><path d="m 0,0 2.502,-1.43 -2.554,-1.335 -1.429,-2.503 -1.336,2.555 -2.502,1.429 2.554,1.336 1.43,2.502 z" style="fill:#ffffff;fill-opacity:1;fill-rule:evenodd;stroke:none" id="path196"/></g><g id="g198" transform="translate(327.4848,333.8831)"><path d="m 0,0 1.634,-0.934 -1.668,-0.872 -0.933,-1.633 -0.872,1.667 -1.634,0.934 1.668,0.872 0.933,1.633 z" style="fill:#ffffff;fill-opacity:1;fill-rule:evenodd;stroke:none" id="path200"/></g><g id="g202" transform="translate(134.6489,255.4676)"><path d="m 0,0 1.634,-0.934 -1.668,-0.872 -0.933,-1.633 -0.872,1.667 -1.634,0.934 1.668,0.872 0.933,1.633 z" style="fill:#ffffff;fill-opacity:1;fill-rule:evenodd;stroke:none" id="path204"/></g><g id="g206" transform="translate(135.5825,322.1009)"><path d="m 0,0 1.634,-0.934 -1.668,-0.871 -0.933,-1.634 -0.872,1.668 -1.634,0.933 1.668,0.872 0.933,1.633 z" style="fill:#ffffff;fill-opacity:1;fill-rule:evenodd;stroke:none" id="path208"/></g><g id="g210" transform="translate(85.6152,222.6629)"><path d="m 0,0 1.634,-0.934 -1.668,-0.871 -0.933,-1.633 -0.872,1.667 -1.634,0.933 1.667,0.872 0.934,1.634 z" style="fill:#ffffff;fill-opacity:1;fill-rule:evenodd;stroke:none" id="path212"/></g><g id="g214" transform="translate(382.4546,268.7683)"><path d="m 0,0 1.634,-0.934 -1.668,-0.872 -0.933,-1.633 -0.872,1.667 -1.634,0.934 1.667,0.872 0.934,1.633 z" style="fill:#ffffff;fill-opacity:1;fill-rule:evenodd;stroke:none" id="path216"/></g><g id="g218" transform="translate(402.6152,202.9969)"><path d="m 0,0 1.634,-0.934 -1.668,-0.872 -0.933,-1.633 -0.872,1.667 -1.634,0.933 1.667,0.872 0.934,1.634 z" style="fill:#ffffff;fill-opacity:1;fill-rule:evenodd;stroke:none" id="path220"/></g></g></g></g></svg>