<svg height="497pt" viewBox="0 0 497.224 497" width="497pt" xmlns="http://www.w3.org/2000/svg"><path d="m369.222656 224.113281h120v264h-120zm0 0" fill="#ccd1d9"/><path d="m449.222656 176.113281h40v48h-40zm0 0" fill="#ffeaa7"/><path d="m489.222656 112.113281v64h-40v-53.359375zm0 0" fill="#ffeaa7"/><path d="m409.222656 136.113281v40h-40v-32l39.363282-10.480469zm0 0" fill="#ffeaa7"/><path d="m409.222656 176.113281h40v48h-40zm0 0" fill="#ffeaa7"/><path d="m449.222656 122.753906v53.359375h-40v-40l-.636718-2.480469zm0 0" fill="#ffeaa7"/><path d="m369.222656 176.113281h40v48h-40zm0 0" fill="#ffeaa7"/><path d="m353.222656 88.113281v32h-128v-32zm0 0" fill="#ccd1d9"/><path d="m241.222656 120.113281h128v368h-64v-224h-32l-8-32h-24zm0 0" fill="#b4dd7f"/><path d="m241.222656 120.113281v112h-32v-112zm0 0" fill="#e6e9ed"/><path d="m265.222656 232.113281 8 32h-208l8-32zm0 0" fill="#969faa"/><path d="m257.222656 328.113281h-238.878906l22.878906 160h24v-64h48v64h32v-64h48v64h32v-64h48v64h32v-160zm0 0" fill="#e6e9ed"/><g fill="#fcd770"><path d="m225.222656 424.113281h48v64h-48zm0 0"/><path d="m193.222656 424.113281v64h-48v-64zm0 0"/><path d="m65.222656 424.113281h48v64h-48zm0 0"/><path d="m65.222656 264.113281h48v32h-48zm0 0"/><path d="m161.222656 296.113281h48v32h-48zm0 0"/><path d="m65.222656 296.113281h48v32h-48zm0 0"/><path d="m209.222656 296.113281h48v32h-48zm0 0"/><path d="m65.222656 296.113281v32h-46.878906l-4.480469-31.519531 3.359375-.480469zm0 0"/><path d="m209.222656 264.113281h48v32h-48zm0 0"/><path d="m273.222656 264.113281h32v32h-48v-32zm0 0"/><path d="m161.222656 264.113281h48v32h-48zm0 0"/><path d="m257.222656 296.113281h48v32h-48zm0 0"/><path d="m113.222656 296.113281h48v32h-48zm0 0"/><path d="m113.222656 264.113281h48v32h-48zm0 0"/><path d="m65.222656 264.113281v32h-48l-3.359375.480469-4.640625-32.480469zm0 0"/></g><path d="m377.222656 133.695312v-21.582031h-16v-32h-32v-56h-16v56h-16v-80h-16v80h-16v-56h-16v56h-32v32h-16v112h-134.246094l-8 32h-58.976562l32 224h-30.777344v16h496v-394.417969zm104 34.417969h-24v-39.183593l24-6.402344zm-455.917968 152-2.289063-16h34.207031v16zm47.917968-16h32v16h-32zm224-16h-32v-16h32zm-48 0h-32v-16h32zm-48 0h-32v-16h32zm-48 0h-32v-16h32zm-48 0h-32v-16h32zm16 16h32v16h-32zm48 0h32v16h-32zm48 0h32v16h-32zm48 0h32v16h-32zm14.25-48-8-32h-22.25v-96h112v352h-48v-224zm97.75-72h24v32h-24zm40 0h24v32h-24zm0-16v-28.519531l24-6.402344v34.921875zm40 16h24v32h-24zm-56-40.257812v24.257812h-24v-17.855469zm-168-47.742188h112v16h-112zm-16 32h16v96h-16zm-137.75 112h179.503906l4 16h-187.503906zm-22.25 32v16h-36.488281l-2.285156-16zm-29.628906 64h269.628906v144h-16v-64h-64v64h-16v-64h-64v64h-16v-64h-64v64h-9.0625zm237.628906 144h-32v-48h32zm-80 0h-32v-48h32zm-80 0h-32v-48h32zm272 0v-248h104v248zm0 0"/><path d="m57.222656 352.113281h16v16h-16zm0 0"/><path d="m105.222656 352.113281h16v16h-16zm0 0"/><path d="m153.222656 352.113281h16v16h-16zm0 0"/><path d="m201.222656 352.113281h16v16h-16zm0 0"/><path d="m249.222656 352.113281h16v16h-16zm0 0"/><path d="m57.222656 384.113281h16v16h-16zm0 0"/><path d="m105.222656 384.113281h16v16h-16zm0 0"/><path d="m153.222656 384.113281h16v16h-16zm0 0"/><path d="m201.222656 384.113281h16v16h-16zm0 0"/><path d="m249.222656 384.113281h16v16h-16zm0 0"/><path d="m265.222656 144.113281h16v16h-16zm0 0"/><path d="m297.222656 144.113281h16v16h-16zm0 0"/><path d="m329.222656 144.113281h16v16h-16zm0 0"/><path d="m265.222656 176.113281h16v16h-16zm0 0"/><path d="m297.222656 176.113281h16v16h-16zm0 0"/><path d="m329.222656 176.113281h16v16h-16zm0 0"/><path d="m393.222656 248.113281h16v16h-16zm0 0"/><path d="m425.222656 248.113281h16v16h-16zm0 0"/><path d="m457.222656 248.113281h16v16h-16zm0 0"/><path d="m393.222656 280.113281h16v16h-16zm0 0"/><path d="m425.222656 280.113281h16v16h-16zm0 0"/><path d="m457.222656 280.113281h16v16h-16zm0 0"/><path d="m393.222656 368.113281h16v16h-16zm0 0"/><path d="m425.222656 368.113281h16v16h-16zm0 0"/><path d="m457.222656 368.113281h16v16h-16zm0 0"/><path d="m393.222656 400.113281h16v16h-16zm0 0"/><path d="m425.222656 400.113281h16v16h-16zm0 0"/><path d="m457.222656 400.113281h16v16h-16zm0 0"/><path d="m297.222656 208.113281h16v16h-16zm0 0"/><path d="m329.222656 208.113281h16v16h-16zm0 0"/><path d="m329.222656 240.113281h16v16h-16zm0 0"/><path d="m329.222656 272.113281h16v16h-16zm0 0"/><path d="m329.222656 304.113281h16v16h-16zm0 0"/><path d="m329.222656 336.113281h16v16h-16zm0 0"/><path d="m329.222656 368.113281h16v16h-16zm0 0"/></svg>